<mxfile host="app.diagrams.net" modified="2023-08-18T16:08:15.357Z" agent="Mozilla/5.0 (X11; Ubuntu; Linux x86_64; rv:109.0) Gecko/20100101 Firefox/116.0" version="21.1.1" etag="COR9ID1zAgr_8iANdzVM" type="github">
  <diagram name="Page-1" id="HpuHrIcPoAzhOqVTIIdY">
    <mxGraphModel>
      <root>
        <mxCell id="0" />
        <mxCell id="1" parent="0" />
      </root>
    </mxGraphModel>
  </diagram>
</mxfile>
